# xmcd
#
# Track frame offsets:
#	150
#	28292
#	50076
#	89329
#	92885
#	122980
#	138087
#	171231
#	174406
#	202156
#	219501
#	219927
#	245200
#	267183
#	297278
#
# Disc length: 4432 seconds
#
# Revision: 1
# Processed by: cddbd v1.5.1PL2 Copyright (c) Steve Scherf et al.
# Submitted via: audiograbber 1.83.01
#
DISCID=ee114e0f
DTITLE=African Expedisound - Audio report
DYEAR=2004
DGENRE=Techno
TTITLE0=TetAar - Electrafreak
TTITLE1=Pongoïd - Out of the woods
TTITLE2=Cyberskum - Find it real
TTITLE3=Lamp Fall - Tama and chants (St louis/Senegal)
TTITLE4=DJ Iguane - Tribal thé
TTITLE5=Tahiti Bob - Virtual tandem
TTITLE6=Arok and Mecha - Nouak Shot
TTITLE7=' - Fête de l'Ida
TTITLE8=Midi Link - Boombatty
TTITLE9=Loan - Nameunaleu
TTITLE10=Marianne - Have a break
TTITLE11=Ascender - Your Monday
TTITLE12=Spukkin Faceship - Arabic chant (Dancefloor jihad mix)
TTITLE13=Kronik spasme - V 2 St Louis
TTITLE14=Lamp Fall - Live au CCF (St Louis/Senegal)
EXTD=
EXTT0=
EXTT1=
EXTT2=
EXTT3=
EXTT4=
EXTT5=
EXTT6=
EXTT7=
EXTT8=
EXTT9=
EXTT10=
EXTT11=
EXTT12=
EXTT13=
EXTT14=
PLAYORDER=
